<svg xmlns="http://www.w3.org/2000/svg" width="938.278" height="147.528" viewBox="0 0 938.278 147.528"><path d="M24.456.784c-3.914 0-7.489-.703-10.618-2.18C10.698-2.79 8.26-4.7 6.444-7.137 4.616-9.575 3.56-12.27 3.397-15.235h12.27c.257 1.828 1.125 3.398 2.777 4.617 1.57 1.219 3.574 1.828 5.918 1.828 2.355 0 4.183-.433 5.484-1.394 1.313-.961 1.91-2.086 1.91-3.563 0-1.57-.773-2.789-2.343-3.574-1.653-.785-4.172-1.559-7.664-2.52-3.563-.867-6.516-1.746-8.79-2.695-2.343-.96-4.253-2.355-5.906-4.266-1.664-1.921-2.531-4.523-2.531-7.746q0-4.042 2.355-7.312c1.477-2.18 3.739-3.914 6.61-5.215 2.871-1.313 6.176-1.922 10.09-1.922 5.754 0 10.36 1.395 13.758 4.266 3.386 2.87 5.308 6.785 5.648 11.66h-11.66c-.164-1.91-.95-3.48-2.344-4.606-1.477-1.136-3.398-1.664-5.742-1.664-2.18 0-3.914.446-5.05 1.22-1.22.784-1.829 1.921-1.829 3.398 0 1.652.785 2.87 2.437 3.656 1.653.867 4.172 1.734 7.57 2.613 3.481.867 6.352 1.734 8.614 2.695s4.266 2.344 5.918 4.266c1.652 2.004 2.438 4.523 2.531 7.746 0 2.777-.785 5.309-2.273 7.477-1.559 2.18-3.738 3.914-6.61 5.132C31.675.175 28.275.784 24.455.784M50.3-24.282c0-4.875.961-9.223 2.965-12.961 1.91-3.75 4.524-6.703 7.91-8.707 3.305-2.004 7.055-3.047 11.145-3.047 3.562 0 6.785.703 9.48 2.18 2.696 1.476 4.793 3.304 6.446 5.484v-6.879h12.27V0h-12.27v-7.054c-1.57 2.273-3.75 4.101-6.446 5.578-2.777 1.558-6 2.261-9.574 2.261-4.09 0-7.746-1.043-11.05-3.14-3.387-2.086-6-5.04-7.91-8.871-2.005-3.739-2.966-8.098-2.966-13.055m37.946.176c0-2.953-.61-5.485-1.746-7.653-1.125-2.097-2.696-3.75-4.7-4.875-2.004-1.136-4.09-1.652-6.351-1.652s-4.348.516-6.27 1.652a12.15 12.15 0 0 0-4.605 4.782c-1.219 2.18-1.828 4.699-1.828 7.57s.609 5.402 1.828 7.57c1.125 2.18 2.695 3.914 4.699 5.051 1.91 1.125 4.008 1.734 6.176 1.734 2.261 0 4.347-.609 6.351-1.734 2.004-1.137 3.575-2.695 4.7-4.875 1.136-2.086 1.746-4.617 1.746-7.57m30.378-29.848c-2.18 0-3.926-.703-5.309-2.086-1.488-1.312-2.18-3.047-2.18-5.05 0-2.005.692-3.739 2.18-5.133 1.383-1.313 3.129-2.004 5.309-2.004 2.168 0 3.914.691 5.39 2.004 1.395 1.394 2.086 3.128 2.086 5.132s-.691 3.739-2.086 5.051c-1.476 1.383-3.222 2.086-5.39 2.086m6 5.742V0h-12.188v-48.21ZM155.087.784c-3.914 0-7.488-.703-10.617-2.18-3.14-1.394-5.578-3.304-7.394-5.742-1.828-2.437-2.883-5.132-3.047-8.097h12.27c.257 1.828 1.124 3.398 2.777 4.617 1.57 1.219 3.574 1.828 5.918 1.828 2.355 0 4.183-.433 5.484-1.394 1.313-.961 1.91-2.086 1.91-3.563 0-1.57-.773-2.789-2.344-3.574-1.652-.785-4.171-1.559-7.664-2.52-3.562-.867-6.515-1.746-8.789-2.695-2.343-.96-4.254-2.355-5.906-4.266-1.664-1.921-2.531-4.523-2.531-7.746q0-4.042 2.355-7.312c1.477-2.18 3.739-3.914 6.61-5.215 2.87-1.313 6.175-1.922 10.09-1.922 5.753 0 10.359 1.395 13.757 4.266 3.387 2.87 5.309 6.785 5.649 11.66h-11.66c-.164-1.91-.95-3.48-2.344-4.606-1.477-1.136-3.399-1.664-5.742-1.664-2.18 0-3.914.446-5.051 1.22-1.219.784-1.828 1.921-1.828 3.398 0 1.652.785 2.87 2.437 3.656 1.653.867 4.172 1.734 7.57 2.613 3.481.867 6.352 1.734 8.614 2.695s4.266 2.344 5.918 4.266c1.652 2.004 2.437 4.523 2.531 7.746 0 2.777-.785 5.309-2.273 7.477-1.559 2.18-3.739 3.914-6.61 5.132-2.87 1.313-6.27 1.922-10.09 1.922m56.127-49.687c3.657 0 6.88.773 9.75 2.344 2.872 1.652 5.051 4.007 6.704 7.054 1.558 3.13 2.343 6.867 2.343 11.227V-.001h-12.175v-26.625c0-3.832-.961-6.797-2.872-8.883-1.921-2.004-4.535-3.046-7.84-3.046-3.386 0-6 1.042-7.91 3.046-2.004 2.086-2.964 5.051-2.964 8.883V0h-12.188v-64.394h12.188v22.183c1.57-2.086 3.656-3.738 6.27-4.957 2.6-1.125 5.483-1.734 8.694-1.734m42.56 8.18a17.7 17.7 0 0 1 6.176-6.012c2.531-1.477 5.402-2.168 8.613-2.168v12.785h-3.21c-3.833 0-6.704.867-8.614 2.695-2.004 1.828-2.965 4.97-2.965 9.399V-.001h-12.188v-48.21h12.188zm67.799 15.574c0 1.734-.094 3.304-.352 4.699h-35.238c.258 3.48 1.477 6.176 3.644 8.18 2.18 2.004 4.793 2.953 7.922 2.953 4.524 0 7.746-1.91 9.657-5.824h13.148c-1.394 4.605-4.09 8.437-8.004 11.402-3.926 3.047-8.789 4.523-14.543 4.523-4.605 0-8.789-1.043-12.433-3.14-3.75-1.992-6.622-4.957-8.625-8.696-2.086-3.738-3.13-8.097-3.13-13.054s1.044-9.399 3.048-13.137c2.003-3.75 4.875-6.703 8.53-8.707 3.657-2.004 7.829-3.047 12.61-3.047 4.617 0 8.707.961 12.363 2.965 3.563 1.992 6.434 4.781 8.438 8.355 2.004 3.645 2.965 7.829 2.965 12.528m-12.621-3.48c-.082-3.13-1.219-5.66-3.399-7.571-2.168-1.828-4.863-2.79-8.086-2.79-3.047 0-5.566.868-7.57 2.696-2.098 1.828-3.398 4.442-3.832 7.664zm66.316 3.48c0 1.734-.094 3.304-.351 4.699h-35.239c.258 3.48 1.477 6.176 3.645 8.18 2.18 2.004 4.793 2.953 7.922 2.953 4.523 0 7.746-1.91 9.656-5.824h13.148c-1.394 4.605-4.09 8.437-8.004 11.402C362.12-.692 357.256.784 351.502.784c-4.605 0-8.789-1.043-12.433-3.14-3.75-1.992-6.621-4.957-8.625-8.696-2.086-3.738-3.129-8.097-3.129-13.054s1.043-9.399 3.047-13.137c2.004-3.75 4.875-6.703 8.531-8.707s7.828-3.047 12.61-3.047c4.617 0 8.707.961 12.363 2.965 3.562 1.992 6.433 4.781 8.437 8.355 2.004 3.645 2.965 7.829 2.965 12.528m-12.621-3.48c-.082-3.13-1.219-5.66-3.398-7.571-2.168-1.828-4.864-2.79-8.086-2.79-3.047 0-5.567.868-7.57 2.696-2.098 1.828-3.4 4.442-3.833 7.664zm62.317 17.402 12.176-36.985h12.973L432.277 0h-14.8l-17.755-48.21h13.055zm38.206-42.727c-2.18 0-3.925-.703-5.308-2.086-1.488-1.312-2.18-3.047-2.18-5.05 0-2.005.692-3.739 2.18-5.133 1.383-1.313 3.129-2.004 5.308-2.004 2.168 0 3.915.691 5.391 2.004 1.395 1.394 2.086 3.128 2.086 5.132s-.691 3.739-2.086 5.051c-1.476 1.383-3.223 2.086-5.39 2.086m6 5.742V0h-12.187v-48.21Zm26.2 10.008v23.32c0 1.653.434 2.79 1.22 3.48.785.786 2.085 1.138 3.913 1.138h5.66V-.001H498.5C488.234 0 483.1-4.958 483.1-14.966v-23.238h-5.742v-10.008h5.742V-60.13h12.27v11.918h10.793v10.008zm16.448 13.922c0-4.875.96-9.223 2.965-12.961 1.91-3.75 4.523-6.703 7.91-8.707 3.305-2.004 7.055-3.047 11.144-3.047 3.563 0 6.786.703 9.48 2.18 2.696 1.476 4.794 3.304 6.446 5.484v-6.879h12.27V0h-12.27v-7.054c-1.57 2.273-3.75 4.101-6.445 5.578-2.777 1.558-6 2.261-9.574 2.261-4.09 0-7.746-1.043-11.051-3.14-3.387-2.086-6-5.04-7.91-8.871-2.004-3.739-2.965-8.098-2.965-13.055m37.945.176c0-2.953-.61-5.485-1.746-7.653-1.125-2.097-2.695-3.75-4.7-4.875-2.003-1.136-4.089-1.652-6.35-1.652-2.262 0-4.348.516-6.27 1.652a12.15 12.15 0 0 0-4.606 4.782c-1.218 2.18-1.828 4.699-1.828 7.57s.61 5.402 1.828 7.57c1.125 2.18 2.696 3.914 4.7 5.051 1.91 1.125 4.007 1.734 6.175 1.734 2.262 0 4.348-.609 6.352-1.734 2.004-1.137 3.574-2.695 4.7-4.875 1.136-2.086 1.745-4.617 1.745-7.57m36.375-40.29V0h-12.187v-64.394Zm18.194 10.442c-2.18 0-3.926-.703-5.309-2.086-1.488-1.312-2.18-3.047-2.18-5.05 0-2.005.692-3.739 2.18-5.133 1.383-1.313 3.129-2.004 5.309-2.004 2.168 0 3.914.691 5.39 2.004 1.395 1.394 2.086 3.128 2.086 5.132s-.691 3.739-2.086 5.051c-1.476 1.383-3.222 2.086-5.39 2.086m6 5.742V0h-12.188v-48.21Zm34.122 10.008h-8.45V0h-12.351v-38.203h-5.485v-10.008h5.485v-2.437c0-5.918 1.652-10.266 5.039-13.055 3.398-2.777 8.45-4.09 15.234-3.914v10.266c-2.953-.082-5.05.433-6.175 1.488-1.137 1.043-1.747 2.953-1.747 5.648v2.004h8.45zm52.734 13.055c0 1.734-.094 3.304-.352 4.699h-35.238c.258 3.48 1.477 6.176 3.645 8.18 2.18 2.004 4.793 2.953 7.922 2.953 4.523 0 7.746-1.91 9.656-5.824h13.148c-1.394 4.605-4.09 8.437-8.004 11.402C684.04-.692 679.176.784 673.422.784c-4.605 0-8.789-1.043-12.433-3.14-3.75-1.992-6.621-4.957-8.625-8.696-2.086-3.738-3.13-8.097-3.13-13.054s1.044-9.399 3.048-13.137c2.004-3.75 4.875-6.703 8.531-8.707s7.828-3.047 12.61-3.047c4.617 0 8.706.961 12.363 2.965 3.562 1.992 6.433 4.781 8.437 8.355 2.004 3.645 2.965 7.829 2.965 12.528m-12.621-3.48c-.082-3.13-1.219-5.66-3.398-7.571-2.168-1.828-4.864-2.79-8.086-2.79-3.047 0-5.567.868-7.57 2.696-2.098 1.828-3.4 4.442-3.833 7.664zm0 0" aria-label="saishree vitalife" style="fill:#1f54a9;fill-opacity:1;fill-rule:nonzero;stroke:none" transform="translate(-.326 111.516)scale(1.33333)"/><path d="M189.18 374.904c4.182 0 7.573-3.23 7.573-7.213s-3.39-7.213-7.572-7.213-7.573 3.23-7.573 7.213 3.39 7.213 7.573 7.213M533.775 374.899c4.182 0 7.572-3.23 7.572-7.213s-3.39-7.213-7.572-7.213-7.573 3.23-7.573 7.213 3.39 7.213 7.573 7.213M674.888 374.869c4.182 0 7.572-3.23 7.572-7.213s-3.39-7.213-7.572-7.213-7.573 3.23-7.573 7.213 3.39 7.213 7.573 7.213" style="fill:#f47216;fill-opacity:1;fill-rule:evenodd;stroke:none" transform="matrix(1.33333 0 0 -1.33333 -94.418 520.282)"/></svg>